<svg id="visual" viewBox="0 0 900 600" width="900" height="600" xmlns="http://www.w3.org/2000/svg" xmlns:xlink="http://www.w3.org/1999/xlink" version="1.1"><path d="M0 145L82 145L82 49L164 49L164 127L245 127L245 91L327 91L327 85L409 85L409 139L491 139L491 85L573 85L573 139L655 139L655 145L736 145L736 133L818 133L818 121L900 121L900 79L900 0L900 0L818 0L818 0L736 0L736 0L655 0L655 0L573 0L573 0L491 0L491 0L409 0L409 0L327 0L327 0L245 0L245 0L164 0L164 0L82 0L82 0L0 0Z" fill="#f6faff"></path><path d="M0 199L82 199L82 133L164 133L164 223L245 223L245 199L327 199L327 271L409 271L409 301L491 301L491 223L573 223L573 199L655 199L655 265L736 265L736 199L818 199L818 295L900 295L900 223L900 77L900 119L818 119L818 131L736 131L736 143L655 143L655 137L573 137L573 83L491 83L491 137L409 137L409 83L327 83L327 89L245 89L245 125L164 125L164 47L82 47L82 143L0 143Z" fill="#f3f8ff"></path><path d="M0 475L82 475L82 259L164 259L164 439L245 439L245 307L327 307L327 373L409 373L409 433L491 433L491 499L573 499L573 313L655 313L655 427L736 427L736 475L818 475L818 427L900 427L900 343L900 221L900 293L818 293L818 197L736 197L736 263L655 263L655 197L573 197L573 221L491 221L491 299L409 299L409 269L327 269L327 197L245 197L245 221L164 221L164 131L82 131L82 197L0 197Z" fill="#e6f1ff"></path><path d="M0 601L82 601L82 601L164 601L164 601L245 601L245 601L327 601L327 601L409 601L409 601L491 601L491 601L573 601L573 601L655 601L655 601L736 601L736 601L818 601L818 601L900 601L900 601L900 341L900 425L818 425L818 473L736 473L736 425L655 425L655 311L573 311L573 497L491 497L491 431L409 431L409 371L327 371L327 305L245 305L245 437L164 437L164 257L82 257L82 473L0 473Z" fill="#d0e4ff"></path></svg>